solid CATIA STL
  facet normal  1.000000e+000  -0.000000e+000  0.000000e+000
    outer loop
      vertex  1.600000e+000  3.510330e-001 -1.917702e-001
      vertex  1.600000e+000 -1.917702e-001 -3.510330e-001
      vertex  1.600000e+000  1.126158e-001 -3.838198e-001
    endloop
  endfacet
  facet normal  1.000000e+000  0.000000e+000  0.000000e+000
    outer loop
      vertex  1.600000e+000 -1.917702e-001 -3.510330e-001
      vertex  1.600000e+000  3.510330e-001 -1.917702e-001
      vertex  1.600000e+000 -3.838198e-001 -1.126158e-001
    endloop
  endfacet
  facet normal  1.000000e+000  -0.000000e+000  0.000000e+000
    outer loop
      vertex  1.600000e+000 -3.838198e-001 -1.126158e-001
      vertex  1.600000e+000  3.510330e-001 -1.917702e-001
      vertex  1.600000e+000  3.838198e-001  1.126158e-001
    endloop
  endfacet
  facet normal  1.000000e+000  0.000000e+000  0.000000e+000
    outer loop
      vertex  1.600000e+000 -3.838198e-001 -1.126158e-001
      vertex  1.600000e+000  3.838198e-001  1.126158e-001
      vertex  1.600000e+000 -3.510330e-001  1.917702e-001
    endloop
  endfacet
  facet normal  1.000000e+000  -0.000000e+000  0.000000e+000
    outer loop
      vertex  1.600000e+000 -3.510330e-001  1.917702e-001
      vertex  1.600000e+000  3.838198e-001  1.126158e-001
      vertex  1.600000e+000  1.917702e-001  3.510330e-001
    endloop
  endfacet
  facet normal  1.000000e+000  0.000000e+000  0.000000e+000
    outer loop
      vertex  1.600000e+000 -3.510330e-001  1.917702e-001
      vertex  1.600000e+000  1.917702e-001  3.510330e-001
      vertex  1.600000e+000 -1.126158e-001  3.838198e-001
    endloop
  endfacet
  facet normal  1.000000e+000 -1.500426e-015 -1.663859e-014
    outer loop
      vertex -6.106227e-015 -2.397128e-001 -4.387913e-001
      vertex -6.217249e-015  1.407698e-001 -4.797748e-001
      vertex -4.662937e-015  1.126158e-001 -3.838198e-001
    endloop
  endfacet
  facet normal  1.000000e+000 -1.673046e-015 -1.553222e-014
    outer loop
      vertex -6.106227e-015 -2.397128e-001 -4.387913e-001
      vertex -4.662937e-015  1.126158e-001 -3.838198e-001
      vertex -4.662937e-015 -1.917702e-001 -3.510330e-001
    endloop
  endfacet
  facet normal  9.999999e-001 -1.216596e-014 -9.799909e-015
    outer loop
      vertex -6.106227e-015 -2.397128e-001 -4.387913e-001
      vertex -4.662937e-015 -1.917702e-001 -3.510330e-001
      vertex -4.662937e-015 -3.838198e-001 -1.126158e-001
    endloop
  endfacet
  facet normal  9.999999e-001 -1.319021e-014 -1.025243e-014
    outer loop
      vertex -6.106227e-015 -2.397128e-001 -4.387913e-001
      vertex -4.662937e-015 -3.838198e-001 -1.126158e-001
      vertex -6.217249e-015 -4.797748e-001 -1.407698e-001
    endloop
  endfacet
  facet normal  9.999999e-001  1.319021e-014  1.025243e-014
    outer loop
      vertex -6.106227e-015  2.397128e-001  4.387913e-001
      vertex -4.662937e-015  3.838198e-001  1.126158e-001
      vertex -6.217249e-015  4.797748e-001  1.407698e-001
    endloop
  endfacet
  facet normal  1.000000e+000  1.672700e-014 -1.801742e-015
    outer loop
      vertex -6.217249e-015  4.797748e-001  1.407698e-001
      vertex -4.662937e-015  3.838198e-001  1.126158e-001
      vertex -4.662937e-015  3.510330e-001 -1.917702e-001
    endloop
  endfacet
  facet normal  9.999999e-001  1.672700e-014 -1.801742e-015
    outer loop
      vertex -6.217249e-015  4.797748e-001  1.407698e-001
      vertex -4.662937e-015  3.510330e-001 -1.917702e-001
      vertex -6.217249e-015  4.387913e-001 -2.397128e-001
    endloop
  endfacet
  facet normal  1.000000e+000  1.055375e-014 -1.310180e-014
    outer loop
      vertex -6.217249e-015  4.387913e-001 -2.397128e-001
      vertex -4.662937e-015  3.510330e-001 -1.917702e-001
      vertex -4.662937e-015  1.126158e-001 -3.838198e-001
    endloop
  endfacet
  facet normal  9.999999e-001  1.055375e-014 -1.310180e-014
    outer loop
      vertex -6.217249e-015  4.387913e-001 -2.397128e-001
      vertex -4.662937e-015  1.126158e-001 -3.838198e-001
      vertex -6.217249e-015  1.407698e-001 -4.797748e-001
    endloop
  endfacet
  facet normal  1.000000e+000  1.216596e-014  9.799910e-015
    outer loop
      vertex -4.662937e-015  3.838198e-001  1.126158e-001
      vertex -6.106227e-015  2.397128e-001  4.387913e-001
      vertex -4.662937e-015  1.917702e-001  3.510330e-001
    endloop
  endfacet
  facet normal  9.999999e-001  1.397469e-015  1.568276e-014
    outer loop
      vertex -4.662937e-015  1.917702e-001  3.510330e-001
      vertex -6.106227e-015  2.397128e-001  4.387913e-001
      vertex -6.217249e-015 -1.407698e-001  4.797748e-001
    endloop
  endfacet
  facet normal  1.000000e+000  1.801742e-015  1.672700e-014
    outer loop
      vertex -4.662937e-015  1.917702e-001  3.510330e-001
      vertex -6.217249e-015 -1.407698e-001  4.797748e-001
      vertex -4.662937e-015 -1.126158e-001  3.838198e-001
    endloop
  endfacet
  facet normal  9.999999e-001 -1.055375e-014  1.310180e-014
    outer loop
      vertex -4.662937e-015 -1.126158e-001  3.838198e-001
      vertex -6.217249e-015 -1.407698e-001  4.797748e-001
      vertex -6.217249e-015 -4.387913e-001  2.397128e-001
    endloop
  endfacet
  facet normal  1.000000e+000 -1.055375e-014  1.310180e-014
    outer loop
      vertex -4.662937e-015 -1.126158e-001  3.838198e-001
      vertex -6.217249e-015 -4.387913e-001  2.397128e-001
      vertex -4.662937e-015 -3.510330e-001  1.917702e-001
    endloop
  endfacet
  facet normal  9.999999e-001 -1.672700e-014  1.801742e-015
    outer loop
      vertex -4.662937e-015 -3.510330e-001  1.917702e-001
      vertex -6.217249e-015 -4.387913e-001  2.397128e-001
      vertex -6.217249e-015 -4.797748e-001 -1.407698e-001
    endloop
  endfacet
  facet normal  1.000000e+000 -1.672700e-014  1.801742e-015
    outer loop
      vertex -4.662937e-015 -3.510330e-001  1.917702e-001
      vertex -6.217249e-015 -4.797748e-001 -1.407698e-001
      vertex -4.662937e-015 -3.838198e-001 -1.126158e-001
    endloop
  endfacet
  facet normal -1.000000e+000  0.000000e+000  0.000000e+000
    outer loop
      vertex -4.000000e-001  1.407698e-001 -4.797748e-001
      vertex -4.000000e-001 -2.397128e-001 -4.387913e-001
      vertex -4.000000e-001  4.387913e-001 -2.397128e-001
    endloop
  endfacet
  facet normal -1.000000e+000  -0.000000e+000  0.000000e+000
    outer loop
      vertex -4.000000e-001  4.387913e-001 -2.397128e-001
      vertex -4.000000e-001 -2.397128e-001 -4.387913e-001
      vertex -4.000000e-001 -4.797748e-001 -1.407698e-001
    endloop
  endfacet
  facet normal -9.999999e-001  0.000000e+000  0.000000e+000
    outer loop
      vertex -4.000000e-001  4.387913e-001 -2.397128e-001
      vertex -4.000000e-001 -4.797748e-001 -1.407698e-001
      vertex -4.000000e-001  4.797748e-001  1.407698e-001
    endloop
  endfacet
  facet normal -9.999999e-001  -0.000000e+000  0.000000e+000
    outer loop
      vertex -4.000000e-001  4.797748e-001  1.407698e-001
      vertex -4.000000e-001 -4.797748e-001 -1.407698e-001
      vertex -4.000000e-001 -4.387913e-001  2.397128e-001
    endloop
  endfacet
  facet normal -1.000000e+000  0.000000e+000  0.000000e+000
    outer loop
      vertex -4.000000e-001  4.797748e-001  1.407698e-001
      vertex -4.000000e-001 -4.387913e-001  2.397128e-001
      vertex -4.000000e-001  2.397128e-001  4.387913e-001
    endloop
  endfacet
  facet normal -1.000000e+000  -0.000000e+000  0.000000e+000
    outer loop
      vertex -4.000000e-001  2.397128e-001  4.387913e-001
      vertex -4.000000e-001 -4.387913e-001  2.397128e-001
      vertex -4.000000e-001 -1.407698e-001  4.797748e-001
    endloop
  endfacet
  facet normal  -0.000000e+000  1.070951e-001  9.942487e-001
    outer loop
      vertex  1.600000e+000  1.917702e-001  3.510330e-001
      vertex -4.662937e-015  1.917702e-001  3.510330e-001
      vertex  1.600000e+000 -1.126158e-001  3.838198e-001
    endloop
  endfacet
  facet normal  0.000000e+000  1.070951e-001  9.942487e-001
    outer loop
      vertex  1.600000e+000 -1.126158e-001  3.838198e-001
      vertex -4.662937e-015  1.917702e-001  3.510330e-001
      vertex -4.662937e-015 -1.126158e-001  3.838198e-001
    endloop
  endfacet
  facet normal  0.000000e+000 -6.273124e-001  7.787678e-001
    outer loop
      vertex  1.600000e+000 -1.126158e-001  3.838198e-001
      vertex -4.662937e-015 -1.126158e-001  3.838198e-001
      vertex  1.600000e+000 -3.510330e-001  1.917702e-001
    endloop
  endfacet
  facet normal  0.000000e+000 -6.273124e-001  7.787678e-001
    outer loop
      vertex  1.600000e+000 -3.510330e-001  1.917702e-001
      vertex -4.662937e-015 -1.126158e-001  3.838198e-001
      vertex -4.662937e-015 -3.510330e-001  1.917702e-001
    endloop
  endfacet
  facet normal  0.000000e+000 -9.942487e-001  1.070951e-001
    outer loop
      vertex  1.600000e+000 -3.510330e-001  1.917702e-001
      vertex -4.662937e-015 -3.510330e-001  1.917702e-001
      vertex  1.600000e+000 -3.838198e-001 -1.126158e-001
    endloop
  endfacet
  facet normal  0.000000e+000 -9.942487e-001  1.070951e-001
    outer loop
      vertex  1.600000e+000 -3.838198e-001 -1.126158e-001
      vertex -4.662937e-015 -3.510330e-001  1.917702e-001
      vertex -4.662937e-015 -3.838198e-001 -1.126158e-001
    endloop
  endfacet
  facet normal  0.000000e+000 -7.787678e-001 -6.273124e-001
    outer loop
      vertex  1.600000e+000 -3.838198e-001 -1.126158e-001
      vertex -4.662937e-015 -3.838198e-001 -1.126158e-001
      vertex  1.600000e+000 -1.917702e-001 -3.510330e-001
    endloop
  endfacet
  facet normal  -0.000000e+000 -7.787678e-001 -6.273124e-001
    outer loop
      vertex  1.600000e+000 -1.917702e-001 -3.510330e-001
      vertex -4.662937e-015 -3.838198e-001 -1.126158e-001
      vertex -4.662937e-015 -1.917702e-001 -3.510330e-001
    endloop
  endfacet
  facet normal  -0.000000e+000  1.070951e-001  9.942488e-001
    outer loop
      vertex -6.106227e-015  2.397128e-001  4.387913e-001
      vertex -4.000000e-001  2.397128e-001  4.387913e-001
      vertex -6.217249e-015 -1.407698e-001  4.797748e-001
    endloop
  endfacet
  facet normal  0.000000e+000  1.070951e-001  9.942488e-001
    outer loop
      vertex -6.217249e-015 -1.407698e-001  4.797748e-001
      vertex -4.000000e-001  2.397128e-001  4.387913e-001
      vertex -4.000000e-001 -1.407698e-001  4.797748e-001
    endloop
  endfacet
  facet normal  0.000000e+000 -6.273124e-001  7.787678e-001
    outer loop
      vertex -6.217249e-015 -1.407698e-001  4.797748e-001
      vertex -4.000000e-001 -1.407698e-001  4.797748e-001
      vertex -6.217249e-015 -4.387913e-001  2.397128e-001
    endloop
  endfacet
  facet normal  0.000000e+000 -6.273124e-001  7.787678e-001
    outer loop
      vertex -6.217249e-015 -4.387913e-001  2.397128e-001
      vertex -4.000000e-001 -1.407698e-001  4.797748e-001
      vertex -4.000000e-001 -4.387913e-001  2.397128e-001
    endloop
  endfacet
  facet normal  0.000000e+000 -9.942488e-001  1.070951e-001
    outer loop
      vertex -6.217249e-015 -4.387913e-001  2.397128e-001
      vertex -4.000000e-001 -4.387913e-001  2.397128e-001
      vertex -6.217249e-015 -4.797748e-001 -1.407698e-001
    endloop
  endfacet
  facet normal  0.000000e+000 -9.942488e-001  1.070951e-001
    outer loop
      vertex -6.217249e-015 -4.797748e-001 -1.407698e-001
      vertex -4.000000e-001 -4.387913e-001  2.397128e-001
      vertex -4.000000e-001 -4.797748e-001 -1.407698e-001
    endloop
  endfacet
  facet normal  0.000000e+000 -7.787678e-001 -6.273124e-001
    outer loop
      vertex -6.217249e-015 -4.797748e-001 -1.407698e-001
      vertex -4.000000e-001 -4.797748e-001 -1.407698e-001
      vertex -6.106227e-015 -2.397128e-001 -4.387913e-001
    endloop
  endfacet
  facet normal  -0.000000e+000 -7.787678e-001 -6.273124e-001
    outer loop
      vertex -6.106227e-015 -2.397128e-001 -4.387913e-001
      vertex -4.000000e-001 -4.797748e-001 -1.407698e-001
      vertex -4.000000e-001 -2.397128e-001 -4.387913e-001
    endloop
  endfacet
  facet normal  0.000000e+000 -1.070951e-001 -9.942487e-001
    outer loop
      vertex  1.600000e+000 -1.917702e-001 -3.510330e-001
      vertex -4.662937e-015 -1.917702e-001 -3.510330e-001
      vertex  1.600000e+000  1.126158e-001 -3.838198e-001
    endloop
  endfacet
  facet normal  -0.000000e+000 -1.070951e-001 -9.942487e-001
    outer loop
      vertex  1.600000e+000  1.126158e-001 -3.838198e-001
      vertex -4.662937e-015 -1.917702e-001 -3.510330e-001
      vertex -4.662937e-015  1.126158e-001 -3.838198e-001
    endloop
  endfacet
  facet normal  0.000000e+000  6.273124e-001 -7.787678e-001
    outer loop
      vertex  1.600000e+000  1.126158e-001 -3.838198e-001
      vertex -4.662937e-015  1.126158e-001 -3.838198e-001
      vertex  1.600000e+000  3.510330e-001 -1.917702e-001
    endloop
  endfacet
  facet normal  0.000000e+000  6.273124e-001 -7.787678e-001
    outer loop
      vertex  1.600000e+000  3.510330e-001 -1.917702e-001
      vertex -4.662937e-015  1.126158e-001 -3.838198e-001
      vertex -4.662937e-015  3.510330e-001 -1.917702e-001
    endloop
  endfacet
  facet normal  0.000000e+000  9.942487e-001 -1.070951e-001
    outer loop
      vertex  1.600000e+000  3.510330e-001 -1.917702e-001
      vertex -4.662937e-015  3.510330e-001 -1.917702e-001
      vertex  1.600000e+000  3.838198e-001  1.126158e-001
    endloop
  endfacet
  facet normal  0.000000e+000  9.942487e-001 -1.070951e-001
    outer loop
      vertex  1.600000e+000  3.838198e-001  1.126158e-001
      vertex -4.662937e-015  3.510330e-001 -1.917702e-001
      vertex -4.662937e-015  3.838198e-001  1.126158e-001
    endloop
  endfacet
  facet normal  -0.000000e+000  7.787678e-001  6.273124e-001
    outer loop
      vertex  1.600000e+000  3.838198e-001  1.126158e-001
      vertex -4.662937e-015  3.838198e-001  1.126158e-001
      vertex  1.600000e+000  1.917702e-001  3.510330e-001
    endloop
  endfacet
  facet normal  0.000000e+000  7.787678e-001  6.273124e-001
    outer loop
      vertex  1.600000e+000  1.917702e-001  3.510330e-001
      vertex -4.662937e-015  3.838198e-001  1.126158e-001
      vertex -4.662937e-015  1.917702e-001  3.510330e-001
    endloop
  endfacet
  facet normal  0.000000e+000 -1.070951e-001 -9.942488e-001
    outer loop
      vertex -6.106227e-015 -2.397128e-001 -4.387913e-001
      vertex -4.000000e-001 -2.397128e-001 -4.387913e-001
      vertex -6.217249e-015  1.407698e-001 -4.797748e-001
    endloop
  endfacet
  facet normal  -0.000000e+000 -1.070951e-001 -9.942488e-001
    outer loop
      vertex -6.217249e-015  1.407698e-001 -4.797748e-001
      vertex -4.000000e-001 -2.397128e-001 -4.387913e-001
      vertex -4.000000e-001  1.407698e-001 -4.797748e-001
    endloop
  endfacet
  facet normal  0.000000e+000  6.273124e-001 -7.787678e-001
    outer loop
      vertex -6.217249e-015  1.407698e-001 -4.797748e-001
      vertex -4.000000e-001  1.407698e-001 -4.797748e-001
      vertex -6.217249e-015  4.387913e-001 -2.397128e-001
    endloop
  endfacet
  facet normal  0.000000e+000  6.273124e-001 -7.787678e-001
    outer loop
      vertex -6.217249e-015  4.387913e-001 -2.397128e-001
      vertex -4.000000e-001  1.407698e-001 -4.797748e-001
      vertex -4.000000e-001  4.387913e-001 -2.397128e-001
    endloop
  endfacet
  facet normal  0.000000e+000  9.942488e-001 -1.070951e-001
    outer loop
      vertex -6.217249e-015  4.387913e-001 -2.397128e-001
      vertex -4.000000e-001  4.387913e-001 -2.397128e-001
      vertex -6.217249e-015  4.797748e-001  1.407698e-001
    endloop
  endfacet
  facet normal  0.000000e+000  9.942488e-001 -1.070951e-001
    outer loop
      vertex -6.217249e-015  4.797748e-001  1.407698e-001
      vertex -4.000000e-001  4.387913e-001 -2.397128e-001
      vertex -4.000000e-001  4.797748e-001  1.407698e-001
    endloop
  endfacet
  facet normal  -0.000000e+000  7.787678e-001  6.273124e-001
    outer loop
      vertex -6.217249e-015  4.797748e-001  1.407698e-001
      vertex -4.000000e-001  4.797748e-001  1.407698e-001
      vertex -6.106227e-015  2.397128e-001  4.387913e-001
    endloop
  endfacet
  facet normal  0.000000e+000  7.787678e-001  6.273124e-001
    outer loop
      vertex -6.106227e-015  2.397128e-001  4.387913e-001
      vertex -4.000000e-001  4.797748e-001  1.407698e-001
      vertex -4.000000e-001  2.397128e-001  4.387913e-001
    endloop
  endfacet
endsolid CATIA STL
